<svg width="32" height="32" viewBox="0 0 32 32" fill="none" xmlns="http://www.w3.org/2000/svg">
<path d="M27 9H4V6C4 5.73478 3.89464 5.48043 3.70711 5.29289C3.51957 5.10536 3.26522 5 3 5C2.73478 5 2.48043 5.10536 2.29289 5.29289C2.10536 5.48043 2 5.73478 2 6V26C2 26.2652 2.10536 26.5196 2.29289 26.7071C2.48043 26.8946 2.73478 27 3 27C3.26522 27 3.51957 26.8946 3.70711 26.7071C3.89464 26.5196 4 26.2652 4 26V22H30V26C30 26.2652 30.1054 26.5196 30.2929 26.7071C30.4804 26.8946 30.7348 27 31 27C31.2652 27 31.5196 26.8946 31.7071 26.7071C31.8946 26.5196 32 26.2652 32 26V14C32 12.6739 31.4732 11.4021 30.5355 10.4645C29.5979 9.52678 28.3261 9 27 9ZM4 11H13V20H4V11ZM15 20V11H27C27.7956 11 28.5587 11.3161 29.1213 11.8787C29.6839 12.4413 30 13.2044 30 14V20H15Z" fill="#343330"/>
</svg>
