<svg width="32" height="32" viewBox="0 0 32 32" fill="none" xmlns="http://www.w3.org/2000/svg">
<path d="M25.1925 6.80747C22.7545 4.36947 19.4479 2.99982 16 2.99982C12.5522 2.99982 9.24554 4.36947 6.80754 6.80748C4.36953 9.24548 2.99988 12.5521 2.99988 16C2.99988 19.4478 4.36953 22.7545 6.80754 25.1925C9.24554 27.6305 12.5522 29.0001 16 29.0001C19.4479 29.0001 22.7545 27.6305 25.1925 25.1925C27.6305 22.7545 29.0002 19.4478 29.0002 16C29.0002 12.5521 27.6305 9.24548 25.1925 6.80747ZM11 24C11 23.4695 11.2108 22.9608 11.5858 22.5858C11.9609 22.2107 12.4696 22 13 22C13.5305 22 14.0392 22.2107 14.4142 22.5858C14.7893 22.9608 15 23.4695 15 24V26.9487C13.6055 26.8226 12.2479 26.4315 11 25.7962V24ZM17 24C17 23.4695 17.2108 22.9608 17.5858 22.5858C17.9609 22.2107 18.4696 22 19 22C19.5305 22 20.0392 22.2107 20.4142 22.5858C20.7893 22.9608 21 23.4695 21 24V25.7962C19.7522 26.4315 18.3946 26.8226 17 26.9487V24ZM13.4088 17H18.5913L20.0388 20.1375C19.3187 19.9434 18.5587 19.9549 17.8448 20.1708C17.131 20.3866 16.4919 20.7982 16 21.3587C15.5082 20.7982 14.8691 20.3866 14.1552 20.1708C13.4414 19.9549 12.6814 19.9434 11.9613 20.1375L13.4088 17ZM14.3325 15L16 11.3862L17.6675 15H14.3325ZM23.7775 23.7787C23.5275 24.0287 23.2675 24.2625 23 24.4837V22C23.0002 21.8553 22.9686 21.7124 22.9075 21.5812L16.9075 8.58123C16.8274 8.40804 16.6993 8.26141 16.5385 8.15865C16.3777 8.05588 16.1909 8.00128 16 8.00128C15.8092 8.00128 15.6223 8.05588 15.4615 8.15865C15.3007 8.26141 15.1727 8.40804 15.0925 8.58123L9.09254 21.5812C9.03144 21.7124 8.99986 21.8553 9.00004 22V24.4837C8.73254 24.2625 8.47254 24.0287 8.22254 23.7787C6.68397 22.2404 5.63613 20.2804 5.21154 18.1466C4.78695 16.0127 5.00467 13.8009 5.83718 11.7908C6.66969 9.7807 8.07958 8.06262 9.88857 6.85384C11.6975 5.64506 13.8244 4.99988 16 4.99988C18.1757 4.99988 20.3025 5.64506 22.1115 6.85384C23.9205 8.06262 25.3304 9.7807 26.1629 11.7908C26.9954 13.8009 27.2131 16.0127 26.7885 18.1466C26.3639 20.2804 25.3161 22.2404 23.7775 23.7787Z" fill="#343330"/>
</svg>
