<svg width="32" height="32" viewBox="0 0 32 32" fill="none" xmlns="http://www.w3.org/2000/svg">
<path d="M26.5 16C27.8807 16 29 14.8807 29 13.5C29 12.1193 27.8807 11 26.5 11C25.1193 11 24 12.1193 24 13.5C24 14.8807 25.1193 16 26.5 16Z" stroke="#343330" stroke-width="2" stroke-linecap="round" stroke-linejoin="round"/>
<path d="M5.5 16C6.88071 16 8 14.8807 8 13.5C8 12.1193 6.88071 11 5.5 11C4.11929 11 3 12.1193 3 13.5C3 14.8807 4.11929 16 5.5 16Z" stroke="#343330" stroke-width="2" stroke-linecap="round" stroke-linejoin="round"/>
<path d="M11.5 10C12.8807 10 14 8.88071 14 7.5C14 6.11929 12.8807 5 11.5 5C10.1193 5 9 6.11929 9 7.5C9 8.88071 10.1193 10 11.5 10Z" stroke="#343330" stroke-width="2" stroke-linecap="round" stroke-linejoin="round"/>
<path d="M20.5 10C21.8807 10 23 8.88071 23 7.5C23 6.11929 21.8807 5 20.5 5C19.1193 5 18 6.11929 18 7.5C18 8.88071 19.1193 10 20.5 10Z" stroke="#343330" stroke-width="2" stroke-linecap="round" stroke-linejoin="round"/>
<path d="M16.0001 13C15.0249 13.0004 14.0763 13.3175 13.2969 13.9036C12.5176 14.4898 11.9497 15.3132 11.6789 16.25C11.2786 17.6278 10.3499 18.7916 9.09511 19.4875C8.18423 19.9732 7.49637 20.7922 7.17537 21.7733C6.85437 22.7544 6.92508 23.8216 7.37273 24.7517C7.82038 25.6819 8.61029 26.403 9.57729 26.7642C10.5443 27.1255 11.6135 27.0989 12.5614 26.69C14.764 25.7869 17.2337 25.7869 19.4364 26.69C20.3842 27.0989 21.4534 27.1255 22.4204 26.7642C23.3874 26.403 24.1773 25.6819 24.625 24.7517C25.0726 23.8216 25.1434 22.7544 24.8224 21.7733C24.5014 20.7922 23.8135 19.9732 22.9026 19.4875C21.6485 18.7914 20.7207 17.6276 20.3214 16.25C20.0505 15.3132 19.4826 14.4898 18.7033 13.9036C17.9239 13.3175 16.9753 13.0004 16.0001 13Z" stroke="#343330" stroke-width="2" stroke-linecap="round" stroke-linejoin="round"/>
</svg>
