<svg width="24" height="24" viewBox="0 0 24 24" fill="none" xmlns="http://www.w3.org/2000/svg">
<path fill-rule="evenodd" clip-rule="evenodd" d="M15.5632 16.12C14.8712 16.8101 13.9886 17.2775 13.0289 17.4621C12.0618 17.6493 11.0609 17.546 10.1524 17.1651C8.29126 16.3858 7.07359 14.5724 7.05668 12.5548C7.04695 11.0716 7.70833 9.66354 8.85602 8.72403C10.0037 7.78451 11.5146 7.41426 12.9667 7.71674C13.9238 7.93386 14.7954 8.42908 15.472 9.14014C16.4207 10.0503 16.9698 11.2997 16.9986 12.6142C17.0081 13.9277 16.4912 15.1903 15.5632 16.12Z" stroke="black" stroke-width="1.5" stroke-linecap="round" stroke-linejoin="round"/>
<path d="M14.9416 8.60977C14.6487 8.90266 14.6487 9.37754 14.9416 9.67043C15.2345 9.96332 15.7093 9.96332 16.0022 9.67043L14.9416 8.60977ZM18.9636 6.70907C19.2565 6.41617 19.2565 5.9413 18.9636 5.64841C18.6707 5.35551 18.1958 5.35551 17.9029 5.64841L18.9636 6.70907ZM16.0944 5.41461C15.6802 5.41211 15.3424 5.74586 15.3399 6.16007C15.3374 6.57428 15.6712 6.91208 16.0854 6.91458L16.0944 5.41461ZM18.4287 6.92872C18.8429 6.93122 19.1807 6.59747 19.1832 6.18326C19.1857 5.76906 18.852 5.43125 18.4378 5.42875L18.4287 6.92872ZM19.1832 6.17421C19.1807 5.76001 18.8429 5.42625 18.4287 5.42875C18.0145 5.43125 17.6808 5.76906 17.6833 6.18326L19.1832 6.17421ZM17.6974 8.52662C17.6999 8.94082 18.0377 9.27458 18.4519 9.27208C18.8661 9.26958 19.1999 8.93177 19.1974 8.51756L17.6974 8.52662ZM16.0022 9.67043L18.9636 6.70907L17.9029 5.64841L14.9416 8.60977L16.0022 9.67043ZM16.0854 6.91458L18.4287 6.92872L18.4378 5.42875L16.0944 5.41461L16.0854 6.91458ZM17.6833 6.18326L17.6974 8.52662L19.1974 8.51756L19.1832 6.17421L17.6833 6.18326Z" fill="black"/>
</svg>
