<svg width="32" height="32" viewBox="0 0 32 32" fill="none" xmlns="http://www.w3.org/2000/svg">
<path d="M16.0001 10C14.8134 10 13.6533 10.3519 12.6666 11.0112C11.6799 11.6705 10.9109 12.6075 10.4568 13.7039C10.0027 14.8003 9.88383 16.0067 10.1153 17.1705C10.3469 18.3344 10.9183 19.4035 11.7574 20.2426C12.5965 21.0818 13.6656 21.6532 14.8295 21.8847C15.9934 22.1162 17.1998 21.9974 18.2962 21.5433C19.3925 21.0891 20.3296 20.3201 20.9889 19.3334C21.6482 18.3467 22.0001 17.1867 22.0001 16C21.9984 14.4092 21.3657 12.884 20.2409 11.7592C19.116 10.6343 17.5908 10.0017 16.0001 10ZM16.0001 20C15.2089 20 14.4356 19.7654 13.7778 19.3259C13.12 18.8863 12.6073 18.2616 12.3045 17.5307C12.0018 16.7998 11.9226 15.9956 12.0769 15.2196C12.2313 14.4437 12.6122 13.731 13.1716 13.1716C13.731 12.6122 14.4438 12.2312 15.2197 12.0769C15.9956 11.9225 16.7999 12.0017 17.5308 12.3045C18.2617 12.6072 18.8864 13.1199 19.3259 13.7777C19.7655 14.4355 20.0001 15.2089 20.0001 16C20.0001 17.0609 19.5786 18.0783 18.8285 18.8284C18.0783 19.5786 17.0609 20 16.0001 20ZM27.0001 16.27C27.0051 16.09 27.0051 15.91 27.0001 15.73L28.8651 13.4C28.9628 13.2777 29.0305 13.1341 29.0627 12.9808C29.0948 12.8275 29.0905 12.6688 29.0501 12.5175C28.7443 11.3682 28.287 10.2648 27.6901 9.23625C27.6119 9.10164 27.5034 8.98714 27.3732 8.90186C27.243 8.81658 27.0947 8.76286 26.9401 8.745L23.9751 8.415C23.8517 8.285 23.7267 8.16 23.6001 8.04L23.2501 5.0675C23.2321 4.91276 23.1782 4.76437 23.0926 4.63416C23.0071 4.50395 22.8924 4.39551 22.7576 4.3175C21.7286 3.72168 20.6253 3.26479 19.4763 2.95875C19.3249 2.91849 19.1662 2.91438 19.0129 2.94673C18.8596 2.97908 18.716 3.04699 18.5938 3.145L16.2701 5C16.0901 5 15.9101 5 15.7301 5L13.4001 3.13875C13.2777 3.04096 13.1341 2.97327 12.9808 2.94114C12.8276 2.909 12.6689 2.91332 12.5176 2.95375C11.3685 3.26003 10.2651 3.71735 9.23631 4.31375C9.1017 4.3919 8.9872 4.5004 8.90192 4.63061C8.81664 4.76081 8.76292 4.90913 8.74506 5.06375L8.41506 8.03375C8.28506 8.15791 8.16006 8.28291 8.04006 8.40875L5.06756 8.75C4.91282 8.768 4.76443 8.8219 4.63422 8.90741C4.50401 8.99291 4.39557 9.10766 4.31756 9.2425C3.72174 10.2715 3.26485 11.3748 2.95881 12.5237C2.91855 12.6752 2.91444 12.8339 2.94679 12.9872C2.97914 13.1405 3.04705 13.284 3.14506 13.4062L5.00006 15.73C5.00006 15.91 5.00006 16.09 5.00006 16.27L3.13881 18.6C3.04102 18.7223 2.97333 18.8659 2.9412 19.0192C2.90906 19.1725 2.91338 19.3312 2.95381 19.4825C3.25954 20.6317 3.71689 21.7352 4.31381 22.7637C4.39196 22.8983 4.50046 23.0128 4.63067 23.0981C4.76087 23.1834 4.90919 23.2371 5.06381 23.255L8.02881 23.585C8.15297 23.715 8.27797 23.84 8.40381 23.96L8.75006 26.9325C8.76806 27.0872 8.82196 27.2356 8.90747 27.3658C8.99298 27.496 9.10772 27.6045 9.24256 27.6825C10.2715 28.2783 11.3749 28.7352 12.5238 29.0412C12.6752 29.0815 12.834 29.0856 12.9872 29.0533C13.1405 29.0209 13.2841 28.953 13.4063 28.855L15.7301 27C15.9101 27.005 16.0901 27.005 16.2701 27L18.6001 28.865C18.7224 28.9628 18.866 29.0305 19.0193 29.0626C19.1726 29.0947 19.3312 29.0904 19.4826 29.05C20.6318 28.7443 21.7352 28.2869 22.7638 27.69C22.8984 27.6118 23.0129 27.5033 23.0982 27.3731C23.1835 27.2429 23.2372 27.0946 23.2551 26.94L23.5851 23.975C23.7151 23.8517 23.8401 23.7267 23.9601 23.6L26.9326 23.25C27.0873 23.232 27.2357 23.1781 27.3659 23.0926C27.4961 23.0071 27.6045 22.8923 27.6826 22.7575C28.2784 21.7285 28.7353 20.6252 29.0413 19.4762C29.0816 19.3248 29.0857 19.1661 29.0533 19.0128C29.021 18.8595 28.9531 18.716 28.8551 18.5937L27.0001 16.27ZM24.9876 15.4575C25.0088 15.8189 25.0088 16.1811 24.9876 16.5425C24.9727 16.7899 25.0502 17.034 25.2051 17.2275L26.9788 19.4437C26.7753 20.0906 26.5147 20.718 26.2001 21.3187L23.3751 21.6387C23.129 21.6661 22.9019 21.7836 22.7376 21.9687C22.4969 22.2394 22.2407 22.4956 21.9701 22.7362C21.7849 22.9006 21.6674 23.1277 21.6401 23.3737L21.3263 26.1962C20.7257 26.511 20.0982 26.7716 19.4513 26.975L17.2338 25.2012C17.0564 25.0595 16.8359 24.9823 16.6088 24.9825H16.5488C16.1875 25.0037 15.8252 25.0037 15.4638 24.9825C15.2164 24.9676 14.9723 25.0451 14.7788 25.2L12.5563 26.975C11.9095 26.7715 11.282 26.5109 10.6813 26.1962L10.3613 23.375C10.334 23.129 10.2164 22.9018 10.0313 22.7375C9.76069 22.4969 9.50442 22.2406 9.26381 21.97C9.09947 21.7849 8.87233 21.6673 8.62631 21.64L5.80381 21.325C5.48905 20.7244 5.22843 20.0969 5.02506 19.45L6.79881 17.2325C6.95369 17.039 7.0312 16.7949 7.01631 16.5475C6.99506 16.1861 6.99506 15.8239 7.01631 15.4625C7.0312 15.2151 6.95369 14.971 6.79881 14.7775L5.02506 12.5562C5.22859 11.9094 5.4892 11.2819 5.80381 10.6812L8.62506 10.3612C8.87108 10.3339 9.09822 10.2164 9.26256 10.0312C9.50317 9.76063 9.75944 9.50436 10.0301 9.26375C10.2159 9.09931 10.334 8.87164 10.3613 8.625L10.6751 5.80375C11.2757 5.48899 11.9032 5.22837 12.5501 5.025L14.7676 6.79875C14.961 6.95363 15.2052 7.03114 15.4526 7.01625C15.8139 6.995 16.1762 6.995 16.5376 7.01625C16.785 7.03114 17.0291 6.95363 17.2226 6.79875L19.4438 5.025C20.0906 5.22853 20.7181 5.48914 21.3188 5.80375L21.6388 8.625C21.6661 8.87101 21.7837 9.09816 21.9688 9.2625C22.2394 9.50311 22.4957 9.75938 22.7363 10.03C22.9006 10.2151 23.1278 10.3327 23.3738 10.36L26.1963 10.6737C26.5111 11.2744 26.7717 11.9019 26.9751 12.5487L25.2013 14.7662C25.0449 14.9614 24.9673 15.208 24.9838 15.4575H24.9876Z" fill="#343330"/>
</svg>
