<svg width="32" height="32" viewBox="0 0 32 32" fill="none" xmlns="http://www.w3.org/2000/svg">
<path d="M30.4098 8.52998L27.4098 5.58498C27.0349 5.21133 26.5272 5.00153 25.9979 5.00153C25.4686 5.00153 24.9609 5.21133 24.586 5.58498L12.9998 17.0287L8.41355 12.5787C8.03789 12.2063 7.52999 11.9978 7.00101 11.999C6.47202 12.0002 5.96505 12.2109 5.59105 12.585L2.59105 15.585C2.21664 15.96 2.00635 16.4682 2.00635 16.9981C2.00635 17.528 2.21664 18.0362 2.59105 18.4112L11.5435 27.4112C11.7293 27.597 11.9498 27.7444 12.1924 27.8449C12.4351 27.9454 12.6952 27.9972 12.9579 27.9972C13.2206 27.9972 13.4807 27.9454 13.7234 27.8449C13.9661 27.7444 14.1866 27.597 14.3723 27.4112L30.416 11.3637C30.6022 11.1775 30.7497 10.9564 30.8501 10.713C30.9506 10.4696 31.002 10.2088 31.0014 9.94555C31.0008 9.68228 30.9482 9.4217 30.8467 9.17878C30.7452 8.93587 30.5967 8.71538 30.4098 8.52998ZM12.9523 26L3.9998 17L6.9998 14C7.00344 14.003 7.00679 14.0063 7.0098 14.01L12.3035 19.1462C12.4904 19.3291 12.7415 19.4315 13.0029 19.4315C13.2644 19.4315 13.5154 19.3291 13.7023 19.1462L26.0073 6.99998L28.9998 9.94998L12.9523 26Z" fill="#343330"/>
</svg>
